# xmcd
#
# Track frame offsets:
#	150
#	18735
#	38317
#	61057
#	79487
#	95740
#	112365
#	129967
#	144522
#	162010
#	178532
#	195290
#	212402
#
# Disc length: 3066 seconds
#
# Revision: 6
# Processed by: cddbd v1.5.2PL0 Copyright (c) Steve Scherf et al.
# Submitted via: audiograbber 1.83.01
#
DISCID=a80bf80d
DTITLE=Westlife - Westlife
DYEAR=2000
DGENRE=Pop
TTITLE0=Swear It Again
TTITLE1=Can't Lose What You Never Had
TTITLE2=I Don't Wanna Fight
TTITLE3=My Private Movie
TTITLE4=Flying Without Wings
TTITLE5=If I Let You Go
TTITLE6=Fool Again
TTITLE7=No No
TTITLE8=Miss You
TTITLE9=Open Your Heart
TTITLE10=We Are One
TTITLE11=I Need You
TTITLE12=More Than Words
EXTD=\n YEAR: 2000
EXTT0=
EXTT1=
EXTT2=
EXTT3=
EXTT4=
EXTT5=
EXTT6=
EXTT7=
EXTT8=
EXTT9=
EXTT10=
EXTT11=
EXTT12=
PLAYORDER=
